<svg xmlns="http://www.w3.org/2000/svg" width="255" height="26" viewBox="0 0 255 26">
    <g fill="#FFF" fill-rule="evenodd">
        <path d="M4.373 8.632h3.001c2.725 0 4.62.433 5.688 1.3 1.067.867 1.6 2.434 1.6 4.702 0 1.277-.142 2.315-.428 3.115-.286.8-.762 1.406-1.43 1.815-.666.41-1.41.686-2.229.83-.82.142-1.896.213-3.23.213-2.743 0-5.154-.085-7.23-.257H0V.63c2.134-.134 4.373-.2 6.717-.2 1.905 0 4.144.066 6.716.2l-.343 3.344H4.373v4.659zm0 8.631h3.001c1.2 0 1.987-.18 2.358-.543.372-.362.557-1.114.557-2.258 0-1.124-.185-1.881-.557-2.272-.371-.39-1.157-.586-2.358-.586H4.373v5.66zM26.41 14.72h-5.088c.133 1.029.448 1.72.943 2.072.496.352 1.296.529 2.401.529 1.505 0 3.258-.105 5.26-.315l.4 2.63c-1.468.705-3.516 1.057-6.146 1.057-2.648 0-4.535-.571-5.659-1.715-1.124-1.143-1.686-3.03-1.686-5.659 0-2.744.552-4.673 1.657-5.788 1.106-1.114 2.944-1.672 5.517-1.672 2.343 0 4.04.405 5.087 1.215 1.048.81 1.582 2.044 1.6 3.701 0 1.315-.337 2.301-1.014 2.959-.676.657-1.767.986-3.272.986zm-5.174-2.544h4.002c.533 0 .886-.124 1.057-.372.172-.247.258-.61.258-1.086 0-.667-.172-1.129-.515-1.386-.343-.257-.972-.386-1.886-.386-1.086 0-1.83.214-2.23.643-.4.429-.629 1.291-.686 2.587zM33.298 9.46l-.286-2.916c1.391-.419 3.04-.629 4.945-.629 2.61 0 4.41.248 5.402.744.99.495 1.486 1.524 1.486 3.086 0 1.087-.229 1.887-.686 2.401-.457.515-1.23.81-2.315.886v.115c1.257.095 2.167.443 2.73 1.043.561.6.843 1.481.843 2.644 0 1.562-.491 2.596-1.472 3.1-.982.506-2.663.758-5.045.758-2.44 0-4.545-.19-6.317-.571l.286-2.916c2.058.19 3.963.286 5.716.286 1.01 0 1.677-.09 2.001-.271.324-.181.486-.586.486-1.215 0-.572-.167-.948-.5-1.13-.334-.18-.986-.28-1.958-.3l-4.059-.056V11.86l4.03-.057c.839 0 1.406-.09 1.701-.271.295-.181.443-.558.443-1.13 0-.514-.171-.847-.514-1-.343-.152-1.03-.228-2.058-.228-1.753 0-3.373.095-4.86.286zm16.034-1.915c1.105-1.125 2.982-1.687 5.63-1.687 2.65 0 4.517.562 5.603 1.687 1.086 1.124 1.629 3.048 1.629 5.773 0 2.706-.543 4.616-1.63 5.73-1.085 1.115-2.953 1.673-5.601 1.673-2.649 0-4.52-.558-5.616-1.672-1.096-1.115-1.644-3.025-1.644-5.73 0-2.726.543-4.65 1.63-5.774zm5.63 1.486c-1.123 0-1.876.286-2.257.857-.381.572-.572 1.715-.572 3.43 0 1.677.19 2.801.572 3.373.381.571 1.134.857 2.258.857 1.105 0 1.853-.286 2.244-.857.39-.572.585-1.696.585-3.373 0-1.696-.195-2.834-.585-3.415-.391-.582-1.139-.872-2.244-.872zm23.61-2.801v14.12h-4.088V9.26h-5.202v11.09h-4.115V6.23H78.57zm3.944 3.172l-.372-2.858c2.534-.457 4.973-.686 7.317-.686 1.906 0 3.31.386 4.216 1.158.905.772 1.358 2.11 1.358 4.016v9.317H91.69l-.428-2.143c-1.41 1.657-3.154 2.486-5.23 2.486-1.354 0-2.454-.357-3.302-1.072-.848-.714-1.272-1.71-1.272-2.986v-1.43c0-1.124.381-2 1.143-2.629.763-.629 1.82-.943 3.173-.943h5.03v-.629c-.019-.705-.185-1.186-.5-1.443-.314-.258-.92-.386-1.815-.386-1.543 0-3.534.076-5.973.228zm3.115 6.117v.543c0 .972.543 1.458 1.63 1.458 1.124 0 2.305-.458 3.543-1.372v-1.972h-3.8c-.916.019-1.373.466-1.373 1.343zm24.38 1.486l.4 2.744c-1.467.629-3.296.943-5.487.943-2.592 0-4.416-.557-5.474-1.672-1.057-1.114-1.586-3.025-1.586-5.73 0-2.725.534-4.645 1.6-5.76 1.068-1.114 2.907-1.672 5.517-1.672 2.134 0 3.868.296 5.202.886l-.457 2.63a282.102 282.102 0 0 0-4.03-.057c-1.296 0-2.187.276-2.673.829-.486.552-.729 1.6-.729 3.144 0 1.543.243 2.591.73 3.144.485.552 1.376.828 2.672.828 1.676 0 3.115-.085 4.315-.257zM126.703 6.26V20.35h-4.144v-5.973h-5.345v5.973h-4.173V6.26h4.173v5.173h5.345V6.259h4.144zm7.66 4.888h2.115c2.477 0 4.173.329 5.088.986.914.657 1.372 1.891 1.372 3.701 0 1.772-.439 2.997-1.315 3.673-.877.677-2.344 1.015-4.402 1.015-2.915 0-5.183-.057-6.802-.172h-.114V6.26h4.058v4.887zm14.605-4.888V20.35h-4.23V6.26h4.23zm-14.605 11.29h2.115c.877 0 1.463-.119 1.758-.357.295-.238.443-.748.443-1.53 0-.742-.148-1.238-.443-1.485-.295-.248-.881-.372-1.758-.372h-2.115v3.744zM161.287 0h2.801c.153 1.2-.205 2.239-1.072 3.115-.867.877-2.062 1.315-3.587 1.315-1.543 0-2.758-.438-3.644-1.315C154.9 2.24 154.542 1.2 154.713 0h2.801c-.076 1.562.563 2.344 1.915 2.344 1.315 0 1.934-.782 1.858-2.344zm5.002 20.379h-3.773v-7.374c0-.553.048-1.306.143-2.258h-.114c-.21.686-.562 1.381-1.058 2.086l-5.316 7.517h-3.601V6.26h3.744v7.516c0 .534-.048 1.23-.143 2.087h.086c.248-.629.6-1.267 1.057-1.915l5.374-7.689h3.601v14.12zM174 20.491V9.63c0-2.268 1.21-3.401 3.63-3.401 3.773 0 6.43.124 7.974.371l-.171 2.944h-5.945c-.458 0-.786.1-.986.3-.2.2-.3.529-.3.986v9.661H174zm14.805-12.805C189.911 6.562 191.787 6 194.436 6s4.516.562 5.602 1.686c1.086 1.125 1.63 3.049 1.63 5.774 0 2.706-.544 4.616-1.63 5.73-1.086 1.115-2.953 1.673-5.602 1.673-2.649 0-4.52-.558-5.616-1.672-1.096-1.115-1.644-3.025-1.644-5.731 0-2.725.543-4.65 1.63-5.774zm5.631 1.487c-1.124 0-1.877.285-2.258.857-.381.572-.572 1.715-.572 3.43 0 1.677.19 2.8.572 3.373.381.571 1.134.857 2.258.857 1.105 0 1.853-.286 2.244-.857.39-.572.586-1.696.586-3.373 0-1.696-.196-2.835-.586-3.416-.39-.58-1.139-.871-2.244-.871zM208.07 6.4l.314 2.058c.59-.705 1.405-1.286 2.444-1.743a7.77 7.77 0 0 1 3.158-.686c3.258 0 4.887 2.515 4.887 7.545 0 2.706-.438 4.597-1.314 5.674-.877 1.076-2.24 1.615-4.088 1.615-1.905 0-3.477-.458-4.716-1.372.096.971.124 1.981.086 3.03v3.4h-4.201V6.402h3.43zm.771 4.287v6.46c1.486.381 2.554.572 3.201.572.953 0 1.606-.267 1.958-.8.353-.534.529-1.649.529-3.345 0-1.658-.162-2.777-.486-3.358-.324-.581-.895-.872-1.715-.872-.953 0-2.115.448-3.487 1.343zm14.034-3C223.98 6.561 225.857 6 228.505 6c2.65 0 4.516.562 5.603 1.686 1.086 1.125 1.629 3.049 1.629 5.774 0 2.706-.543 4.616-1.63 5.73-1.086 1.115-2.953 1.673-5.601 1.673-2.65 0-4.521-.558-5.617-1.672-1.095-1.115-1.643-3.025-1.643-5.731 0-2.725.543-4.65 1.629-5.774zm5.63 1.486c-1.124 0-1.876.285-2.257.857-.382.572-.572 1.715-.572 3.43 0 1.677.19 2.8.572 3.373.38.571 1.133.857 2.258.857 1.105 0 1.853-.286 2.243-.857.39-.572.586-1.696.586-3.373 0-1.696-.195-2.835-.586-3.416-.39-.58-1.138-.871-2.243-.871zm25.696 8.288v7.06h-2.773l-.314-4.03h-10.547l-.286 4.03h-2.772v-7.06h1.772c.838-2.153 1.42-4.697 1.743-7.631.229-2.287 1.572-3.43 4.03-3.43h6.917v11.061h2.23zm-6.203 0V9.258h-1.829c-.857 0-1.334.448-1.429 1.344-.324 2.8-.905 5.087-1.743 6.86h5.001z"/>
    </g>
</svg>
