<svg xmlns="http://www.w3.org/2000/svg" width="23" height="32" viewBox="0 0 23 32">
    <g fill="#0263B2" fill-rule="nonzero">
        <path d="M22.4 5.074V1.6A1.6 1.6 0 0 0 20.8 0H1.6A1.6 1.6 0 0 0 0 1.6v3.475C0 6.34.512 7.576 1.406 8.47L8.938 16l-7.532 7.533A4.762 4.762 0 0 0 0 26.926V30.4A1.6 1.6 0 0 0 1.6 32h19.2a1.6 1.6 0 0 0 1.6-1.6v-3.474c0-1.283-.5-2.488-1.406-3.395L13.462 16l7.532-7.531A4.833 4.833 0 0 0 22.4 5.074zm-3.2 21.852V28.8h-16v-1.874c0-.428.166-.83.469-1.132l7.531-7.532 7.531 7.533c.303.301.469.703.469 1.131zm0-21.852c0 .42-.171.833-.469 1.13L11.2 13.737 3.669 6.205A1.612 1.612 0 0 1 3.2 5.074V3.2h16v1.874z"/>
        <path d="M6.4 27.2l4.8-4.8 4.8 4.8z"/>
    </g>
</svg>
